<svg width="13" height="14" viewBox="0 0 13 14" fill="none" xmlns="http://www.w3.org/2000/svg">
<path fill-rule="evenodd" clip-rule="evenodd" d="M10.2916 2.67578H2.70831C2.37321 2.67578 2.10156 2.94743 2.10156 3.28253C2.10156 3.61763 2.37321 3.88928 2.70831 3.88928H8.82682L2.27928 10.4368C2.04232 10.6738 2.04232 11.058 2.27928 11.2949C2.51623 11.5319 2.9004 11.5319 3.13735 11.2949L9.6849 4.74736V10.8659C9.6849 11.201 9.95655 11.4726 10.2916 11.4726C10.6267 11.4726 10.8984 11.201 10.8984 10.8659V3.28253C10.8984 3.20026 10.882 3.12182 10.8524 3.05028C10.8234 2.98034 10.7808 2.91472 10.7246 2.85747C10.6679 2.79974 10.5998 2.7533 10.5239 2.72182" fill="#F1F1F1"/>
</svg>
